<svg width="17" height="17" viewBox="0 0 17 17" fill="transparent" xmlns="http://www.w3.org/2000/svg">
<g id="Data--error">
<rect width="16" height="16" transform="translate(0.5 0.5)" fill="transparent" style="mix-blend-mode:multiply"/>
<g id="Vector">
<path d="M6 5C6.27614 5 6.5 4.77614 6.5 4.5C6.5 4.22386 6.27614 4 6 4C5.72386 4 5.5 4.22386 5.5 4.5C5.5 4.77614 5.72386 5 6 5Z" fill="#2F54EB"/>
<path d="M6 9C6.27614 9 6.5 8.77614 6.5 8.5C6.5 8.22386 6.27614 8 6 8C5.72386 8 5.5 8.22386 5.5 8.5C5.5 8.77614 5.72386 9 6 9Z" fill="#2F54EB"/>
<path d="M6 13C6.27614 13 6.5 12.7761 6.5 12.5C6.5 12.2239 6.27614 12 6 12C5.72386 12 5.5 12.2239 5.5 12.5C5.5 12.7761 5.72386 13 6 13Z" fill="#2F54EB"/>
<path d="M12.5 2H4.5C4.23478 2 3.98043 2.10536 3.79289 2.29289C3.60536 2.48043 3.5 2.73478 3.5 3V14C3.5 14.2652 3.60536 14.5196 3.79289 14.7071C3.98043 14.8946 4.23478 15 4.5 15H9.5V14H4.5V11H13.5V3C13.5 2.73478 13.3946 2.48043 13.2071 2.29289C13.0196 2.10536 12.7652 2 12.5 2ZM12.5 10H4.5V7H12.5V10ZM12.5 6H4.5V3H12.5V6Z" fill="#2F54EB"/>
<path d="M15 12.7075L14.293 12L13 13.2935L11.707 12L11 12.7075L12.293 14L11 15.293L11.707 16L13 14.707L14.293 16L15 15.293L13.707 14L15 12.7075Z" fill="#2F54EB"/>
</g>
</g>
</svg>
