<svg width="17" height="17" viewBox="0 0 17 17" fill="none" xmlns="http://www.w3.org/2000/svg">
<g id="IssuesClose" clip-path="url(#clip0_416_5795)">
<rect width="16" height="16" transform="translate(0.5 0.5)" fill="transparent" style="mix-blend-mode:multiply"/>
<path id="Vector" d="M7.64232 11.6428C7.64232 11.8702 7.73262 12.0882 7.89337 12.2489C8.05411 12.4097 8.27213 12.5 8.49946 12.5C8.72679 12.5 8.9448 12.4097 9.10555 12.2489C9.2663 12.0882 9.3566 11.8702 9.3566 11.6428C9.3566 11.4155 9.2663 11.1975 9.10555 11.0367C8.9448 10.876 8.72679 10.7857 8.49946 10.7857C8.27213 10.7857 8.05411 10.876 7.89337 11.0367C7.73262 11.1975 7.64232 11.4155 7.64232 11.6428ZM8.92803 9.64283C9.0066 9.64283 9.07089 9.57854 9.07089 9.49997V4.64283C9.07089 4.56426 9.0066 4.49997 8.92803 4.49997H8.07089C7.99232 4.49997 7.92803 4.56426 7.92803 4.64283V9.49997C7.92803 9.57854 7.99232 9.64283 8.07089 9.64283H8.92803ZM16.0709 6.28569H15.012C14.9655 6.28569 14.9227 6.30712 14.8959 6.34461L12.9941 8.96604L12.103 7.73747C12.0898 7.71907 12.0724 7.70412 12.0522 7.69386C12.032 7.68361 12.0096 7.67835 11.987 7.67854H10.928C10.812 7.67854 10.7441 7.81069 10.812 7.90533L12.762 10.5964C12.7886 10.6329 12.8236 10.6626 12.8639 10.6831C12.9043 10.7036 12.9489 10.7143 12.9941 10.7143C13.0393 10.7143 13.0839 10.7036 13.1243 10.6831C13.1646 10.6626 13.1996 10.6329 13.2262 10.5964L16.187 6.51247C16.2548 6.41783 16.187 6.28569 16.0709 6.28569ZM15.2852 11.75H14.1387C14.0405 11.75 13.9495 11.8018 13.8959 11.8839C13.6424 12.2866 13.3441 12.6592 13.0066 12.9946C12.4265 13.5751 11.7394 14.0378 10.9834 14.3571C10.1996 14.6877 9.35726 14.8571 8.5066 14.8553C7.64767 14.8553 6.81375 14.6875 6.02982 14.3571C5.27377 14.0378 4.58671 13.5751 4.0066 12.9946C3.42461 12.416 2.96118 11.7294 2.64232 10.9732C2.31017 10.191 2.14232 9.35711 2.14232 8.49997C2.14232 7.64283 2.31017 6.8089 2.64232 6.02676C2.96196 5.26962 3.42089 4.58926 4.0066 4.00533C4.59232 3.4214 5.27267 2.96247 6.02982 2.64283C6.81362 2.31226 7.65594 2.14283 8.5066 2.14462C9.36553 2.14462 10.1995 2.31247 10.9834 2.64283C11.7405 2.96247 12.4209 3.4214 13.0066 4.00533C13.3459 4.34462 13.6423 4.71604 13.8959 5.11604C13.9477 5.19997 14.0405 5.24997 14.1387 5.24997H15.2852C15.3923 5.24997 15.4602 5.13747 15.4137 5.04283C14.1566 2.54462 11.5834 0.821402 8.60124 0.785687C4.33696 0.735687 0.794102 4.22319 0.785173 8.48569C0.776245 12.7518 4.23696 16.2143 8.5066 16.2143C11.528 16.2143 14.1423 14.4821 15.412 11.9571C15.4229 11.9354 15.4281 11.9112 15.4271 11.8869C15.4261 11.8626 15.4189 11.839 15.4062 11.8182C15.3935 11.7975 15.3757 11.7803 15.3546 11.7684C15.3334 11.7564 15.3095 11.7501 15.2852 11.75Z" fill="#2F54EB"/>
</g>
<defs>
<clipPath id="clip0_416_5795">
<rect width="16" height="16" fill="transparent" transform="translate(0.5 0.5)"/>
</clipPath>
</defs>
</svg>
