<svg width="24" height="24" viewBox="0 0 24 24" fill="none" xmlns="http://www.w3.org/2000/svg">
<g id="Ads">
<g id="Group">
<path id="Vector" d="M10.9297 18.4999H9.06685C8.96326 18.4999 8.86803 18.446 8.81457 18.3593C7.87062 16.8049 7.40951 15.3321 7.40617 13.8528C7.40617 13.776 7.43624 13.7025 7.49137 13.6485C7.5465 13.5946 7.62169 13.5635 7.69854 13.5635H9.74849C9.91055 13.5635 10.0425 13.691 10.0425 13.8496C10.0459 15.3239 10.4418 16.782 11.1853 18.07C11.2371 18.1583 11.2354 18.2678 11.1836 18.3561C11.1318 18.4443 11.0349 18.4983 10.9297 18.4983V18.4999ZM9.23558 17.9245H10.4418C9.84372 16.746 9.50791 15.4514 9.46113 14.1389H7.99926C8.0544 15.3844 8.45203 16.5989 9.23392 17.9245H9.23558Z" fill="#595959" stroke="#595959" stroke-width="0.32"/>
<path id="Vector_2" d="M12.2146 14.139H5.49003C4.99216 14.139 4.58618 13.7434 4.58618 13.2547V9.11105C4.58618 8.62395 4.99049 8.22677 5.49003 8.22677H12.2146C12.3767 8.22677 12.5087 8.3559 12.5087 8.51445V13.8513C12.5087 14.0098 12.3767 14.139 12.2146 14.139ZM5.49003 8.80211C5.31628 8.80211 5.17427 8.94105 5.17427 9.11105V13.2547C5.17427 13.4247 5.31628 13.5636 5.49003 13.5636H11.9222V8.80211H5.49003Z" fill="#595959" stroke="#595959" stroke-width="0.32"/>
<path id="Vector_3" d="M19.6041 16.9504C19.5673 16.9504 19.5322 16.9438 19.4971 16.9308L12.1076 14.1193C11.994 14.0768 11.9205 13.9706 11.9205 13.8512V8.51441C11.9205 8.39672 11.9957 8.28884 12.1076 8.24634L19.4971 5.43489C19.5874 5.40056 19.6893 5.41201 19.7695 5.46595C19.8497 5.51989 19.8981 5.60815 19.8981 5.70296V16.6643C19.8981 16.7591 19.8497 16.8474 19.7695 16.9013C19.7193 16.934 19.6625 16.952 19.6041 16.952V16.9504ZM12.5086 13.6551L19.31 16.2442V6.12305L12.5086 8.71218V13.6551Z" fill="#595959" stroke="#595959" stroke-width="0.32"/>
<path id="Vector_4" d="M4.88008 13.2023H2.4041C1.90623 13.2023 1.50024 12.8067 1.50024 12.318V10.046C1.50024 9.55887 1.90456 9.16166 2.4041 9.16166H4.88008C5.04213 9.16166 5.17412 9.29079 5.17412 9.44935V12.913C5.17412 13.0715 5.04213 13.2006 4.88008 13.2006V13.2023ZM2.4041 9.73867C2.23034 9.73867 2.08833 9.87761 2.08833 10.0476V12.3196C2.08833 12.4896 2.23034 12.6286 2.4041 12.6286H4.58604V9.73867H2.4041Z" fill="#595959" stroke="#595959" stroke-width="0.32"/>
<path id="Vector_5" d="M20.5378 17.8689H20.2721C19.7409 17.8689 19.3098 17.4472 19.3098 16.9274V5.44139C19.3098 4.9216 19.7409 4.49988 20.2721 4.49988H20.5378C21.0691 4.49988 21.5001 4.9216 21.5001 5.44139V16.9274C21.5001 17.4472 21.0674 17.8689 20.5378 17.8689ZM20.2721 5.07361C20.065 5.07361 19.8962 5.2387 19.8962 5.44139V16.9274C19.8962 17.1301 20.065 17.2952 20.2721 17.2952H20.5378C20.7449 17.2952 20.9137 17.1301 20.9137 16.9274V5.44139C20.9137 5.2387 20.7449 5.07361 20.5378 5.07361H20.2721Z" fill="#595959" stroke="#595959" stroke-width="0.32"/>
</g>
</g>
</svg>
