<svg width="24" height="24" viewBox="0 0 24 24" fill="none" xmlns="http://www.w3.org/2000/svg">
<g id="Component 1">
<g id="Group">
<path id="Vector" d="M8.94379 16.2675C8.78213 16.2675 8.65046 16.1358 8.65046 15.9742V13.6942C8.65046 12.9625 8.05546 12.3675 7.32379 12.3675H3.24712C2.51545 12.3675 1.92045 12.9625 1.92045 13.6942V15.9742C1.92045 16.1358 1.78878 16.2675 1.62711 16.2675C1.46545 16.2675 1.33378 16.1358 1.33378 15.9742V13.6942C1.33378 12.6392 2.19211 11.7808 3.24712 11.7808H7.32379C8.3788 11.7808 9.23713 12.6392 9.23713 13.6942V15.9742C9.23713 16.1358 9.10546 16.2675 8.94379 16.2675Z" fill="#595959" stroke="#595959" stroke-width="0.3"/>
<path id="Vector_2" d="M5.28546 11.2642C4.36878 11.2642 3.62379 10.5192 3.62379 9.6025C3.62379 8.68583 4.36878 7.94083 5.28546 7.94083C6.20213 7.94083 6.94712 8.68583 6.94712 9.6025C6.94712 10.5192 6.20213 11.2642 5.28546 11.2642ZM5.28546 8.5275C4.69212 8.5275 4.21046 9.00916 4.21046 9.6025C4.21046 10.1958 4.69212 10.6775 5.28546 10.6775C5.87879 10.6775 6.36045 10.1958 6.36045 9.6025C6.36045 9.00916 5.87712 8.5275 5.28546 8.5275Z" fill="#595959" stroke="#595959" stroke-width="0.3"/>
<path id="Vector_3" d="M3.1421 16.2675C2.98043 16.2675 2.84876 16.1358 2.84876 15.9742V13.9442C2.84876 13.7825 2.98043 13.6508 3.1421 13.6508C3.30377 13.6508 3.43543 13.7825 3.43543 13.9442V15.9742C3.43543 16.1358 3.30377 16.2675 3.1421 16.2675Z" fill="#595959" stroke="#595959" stroke-width="0.3"/>
<path id="Vector_4" d="M7.42715 16.2675C7.26548 16.2675 7.13381 16.1358 7.13381 15.9742V13.9442C7.13381 13.7825 7.26548 13.6508 7.42715 13.6508C7.58882 13.6508 7.72044 13.7825 7.72044 13.9442V15.9742C7.72044 16.1358 7.58882 16.2675 7.42715 16.2675Z" fill="#595959" stroke="#595959" stroke-width="0.3"/>
<path id="Vector_5" d="M22.3722 16.2675C22.2105 16.2675 22.0788 16.1358 22.0788 15.9742V13.6942C22.0788 12.9625 21.4838 12.3675 20.7522 12.3675H16.6755C15.9438 12.3675 15.3488 12.9625 15.3488 13.6942V15.9742C15.3488 16.1358 15.2171 16.2675 15.0555 16.2675C14.8938 16.2675 14.7621 16.1358 14.7621 15.9742V13.6942C14.7621 12.6392 15.6205 11.7808 16.6755 11.7808H20.7522C21.8072 11.7808 22.6655 12.6392 22.6655 13.6942V15.9742C22.6655 16.1358 22.5339 16.2675 22.3722 16.2675Z" fill="#595959" stroke="#595959" stroke-width="0.3"/>
<path id="Vector_6" d="M18.7139 11.2642C17.7972 11.2642 17.0522 10.5192 17.0522 9.6025C17.0522 8.68583 17.7972 7.94083 18.7139 7.94083C19.6305 7.94083 20.3755 8.68583 20.3755 9.6025C20.3755 10.5192 19.6305 11.2642 18.7139 11.2642ZM18.7139 8.5275C18.1205 8.5275 17.6388 9.00916 17.6388 9.6025C17.6388 10.1958 18.1205 10.6775 18.7139 10.6775C19.3072 10.6775 19.7888 10.1958 19.7888 9.6025C19.7888 9.00916 19.3072 8.5275 18.7139 8.5275Z" fill="#595959" stroke="#595959" stroke-width="0.3"/>
<path id="Vector_7" d="M16.5722 16.2675C16.4105 16.2675 16.2788 16.1358 16.2788 15.9742V13.9442C16.2788 13.7825 16.4105 13.6508 16.5722 13.6508C16.7338 13.6508 16.8655 13.7825 16.8655 13.9442V15.9742C16.8655 16.1358 16.7338 16.2675 16.5722 16.2675Z" fill="#595959" stroke="#595959" stroke-width="0.3"/>
<path id="Vector_8" d="M20.8572 16.2675C20.6955 16.2675 20.5638 16.1358 20.5638 15.9742V13.9442C20.5638 13.7825 20.6955 13.6508 20.8572 13.6508C21.0189 13.6508 21.1505 13.7825 21.1505 13.9442V15.9742C21.1505 16.1358 21.0189 16.2675 20.8572 16.2675Z" fill="#595959" stroke="#595959" stroke-width="0.3"/>
<path id="Vector_9" d="M7.21715 6.33917C7.13715 6.33917 7.05548 6.30584 6.99881 6.24084C6.89047 6.12084 6.90212 5.93418 7.02212 5.82751C8.4188 4.58085 10.2205 3.89583 12.0938 3.89583C13.9672 3.89583 15.7688 4.58251 17.1655 5.82751C17.2855 5.93585 17.2972 6.12084 17.1888 6.24084C17.0805 6.36084 16.8955 6.37251 16.7755 6.26418C15.4855 5.11418 13.8238 4.48083 12.0938 4.48083C10.3638 4.48083 8.70214 5.11418 7.41214 6.26418C7.35547 6.31418 7.28715 6.33917 7.21715 6.33917Z" fill="#595959" stroke="#595959" stroke-width="0.3"/>
<path id="Vector_10" d="M12.0922 20.3125C10.1855 20.3125 8.36048 19.6058 6.95381 18.3208C6.83381 18.2125 6.82546 18.0258 6.93546 17.9075C7.04379 17.7875 7.23046 17.7792 7.34879 17.8892C8.64713 19.0742 10.3322 19.7275 12.0922 19.7275C13.8522 19.7275 15.5372 19.0742 16.8355 17.8892C16.9555 17.7808 17.1405 17.7892 17.2489 17.9075C17.3572 18.0275 17.3488 18.2125 17.2305 18.3208C15.8238 19.6058 13.9989 20.3125 12.0922 20.3125Z" fill="#595959" stroke="#595959" stroke-width="0.3"/>
<path id="Vector_11" d="M8.65881 6.67752H6.85212C6.76379 6.67752 6.68048 6.63751 6.62548 6.56918C6.57048 6.50085 6.54713 6.41085 6.56546 6.32585L6.93045 4.54418C6.96212 4.38584 7.11713 4.28251 7.27547 4.31584C7.4338 4.34751 7.53549 4.50252 7.50382 4.66086L7.21048 6.09085H8.65881C8.82048 6.09085 8.95215 6.22252 8.95215 6.38418C8.95215 6.54585 8.82048 6.67752 8.65881 6.67752Z" fill="#595959" stroke="#595959" stroke-width="0.3"/>
<path id="Vector_12" d="M16.9855 19.9192C16.9655 19.9192 16.9455 19.9175 16.9272 19.9125C16.7689 19.8808 16.6672 19.7258 16.6988 19.5675L16.9922 18.1375H15.5438C15.3822 18.1375 15.2505 18.0058 15.2505 17.8442C15.2505 17.6825 15.3822 17.5508 15.5438 17.5508H17.3505C17.4388 17.5508 17.5222 17.5908 17.5772 17.6592C17.6322 17.7275 17.6555 17.8175 17.6371 17.9025L17.2722 19.6842C17.2438 19.8225 17.1222 19.9192 16.9855 19.9192Z" fill="#595959" stroke="#595959" stroke-width="0.3"/>
</g>
</g>
</svg>
