<svg width="24" height="24" viewBox="0 0 24 24" fill="#2F54EB" xmlns="http://www.w3.org/2000/svg">
<g id="Component 1">
<g id="Group">
<g id="Vector">
<path d="M15.2796 11.33C15.2013 11.33 15.1246 11.2983 15.0663 11.2383C14.9546 11.12 14.9613 10.935 15.078 10.8233L19.658 6.51167C19.7763 6.40001 19.9613 6.40667 20.073 6.525C20.1846 6.64333 20.178 6.82833 20.0613 6.94L15.4813 11.2517C15.4246 11.305 15.353 11.3317 15.2813 11.3317L15.2796 11.33Z" fill="#595959"/>
<path d="M13.6096 11.5917C13.558 11.5917 13.5047 11.5783 13.458 11.5483L9.49799 9.13167C9.35965 9.04667 9.31631 8.86667 9.40131 8.72833C9.48631 8.59 9.66629 8.54668 9.80463 8.63168L13.7646 11.0483C13.903 11.1333 13.9463 11.3133 13.8613 11.4517C13.8063 11.5417 13.7096 11.5917 13.6113 11.5917H13.6096Z" fill="#595959"/>
<path d="M4.29295 13.18C4.21962 13.18 4.14625 13.1517 4.08958 13.0967C3.97292 12.9833 3.97128 12.7983 4.08295 12.6817L7.87791 8.77332C7.99124 8.65666 8.17628 8.655 8.29295 8.76667C8.40962 8.88 8.41125 9.065 8.29958 9.18167L4.50458 13.09C4.44791 13.1483 4.37125 13.1783 4.29458 13.1783L4.29295 13.18Z" fill="#595959"/>
<path d="M3.6013 14.8367C3.5813 14.8367 3.56299 14.8367 3.54299 14.8367C2.84466 14.805 2.30299 14.2117 2.33466 13.515C2.34966 13.1767 2.49632 12.865 2.74465 12.6367C2.99465 12.4083 3.31798 12.2917 3.65631 12.3067C4.35464 12.3383 4.89631 12.9317 4.86464 13.6283C4.84964 13.9667 4.70298 14.2783 4.45465 14.5067C4.21965 14.7217 3.91797 14.8383 3.6013 14.8383V14.8367ZM3.59963 12.89C3.42963 12.89 3.26796 12.9533 3.1413 13.0683C3.0063 13.1917 2.92795 13.3583 2.92129 13.54C2.90462 13.915 3.19631 14.2333 3.57131 14.25C3.75298 14.2583 3.9263 14.195 4.0613 14.0733C4.1963 13.95 4.27464 13.7834 4.28131 13.6017C4.29798 13.2267 4.00629 12.9083 3.63129 12.8917C3.62129 12.8917 3.60963 12.8917 3.59963 12.8917V12.89Z" fill="#595959"/>
<path d="M8.77797 9.55835C8.75797 9.55835 8.73962 9.55835 8.71962 9.55835C8.02129 9.52668 7.47962 8.93334 7.51129 8.23668C7.52629 7.89834 7.67295 7.58667 7.92128 7.35834C8.17128 7.13001 8.49632 7.01334 8.83299 7.02834C9.17132 7.04334 9.48295 7.19 9.71128 7.43834C9.93962 7.68834 10.0563 8.01169 10.0413 8.35002C10.0263 8.68835 9.87962 9 9.63129 9.22833C9.39629 9.44333 9.09464 9.56002 8.77797 9.56002V9.55835ZM8.77631 7.61168C8.60631 7.61168 8.44464 7.675 8.31797 7.79C8.18297 7.91333 8.10463 8.08001 8.09796 8.26168C8.08129 8.63668 8.37299 8.95501 8.74799 8.97168C8.92965 8.98001 9.10298 8.91667 9.23798 8.795C9.37298 8.67167 9.45132 8.50501 9.45799 8.32335C9.46632 8.14168 9.40298 7.96834 9.28131 7.83334C9.15798 7.7 8.9913 7.62001 8.80963 7.61334C8.79963 7.61334 8.78797 7.61334 8.77797 7.61334L8.77631 7.61168Z" fill="#595959"/>
<path d="M14.5613 13.0783C14.5413 13.0783 14.5229 13.0783 14.5029 13.0783C13.8046 13.0467 13.2629 12.4533 13.2946 11.7567C13.3096 11.4183 13.4563 11.1067 13.7047 10.8783C13.9547 10.65 14.278 10.5333 14.6163 10.5483C15.3146 10.58 15.8563 11.1733 15.8246 11.87C15.8096 12.2083 15.663 12.52 15.4147 12.7483C15.1797 12.9633 14.878 13.08 14.5613 13.08V13.0783ZM14.5596 11.1317C14.3896 11.1317 14.228 11.195 14.1013 11.31C13.9663 11.4334 13.888 11.6 13.8813 11.7817C13.8646 12.1567 14.1563 12.475 14.5313 12.4917C14.7113 12.5 14.8863 12.4367 15.0213 12.315C15.1563 12.1917 15.2346 12.025 15.2413 11.8433C15.258 11.4683 14.9663 11.15 14.5913 11.1333C14.5813 11.1333 14.5696 11.1333 14.5596 11.1333V11.1317Z" fill="#595959"/>
<path d="M20.5879 7.21668C20.5679 7.21668 20.5496 7.21668 20.5296 7.21668C20.1913 7.20168 19.8796 7.05502 19.6513 6.80668C19.4229 6.55668 19.3063 6.23333 19.3213 5.895C19.3363 5.55667 19.4829 5.24502 19.7313 5.01669C19.9813 4.78835 20.3063 4.67167 20.6429 4.68667C21.3413 4.71834 21.8829 5.31168 21.8513 6.00834C21.8363 6.34668 21.6896 6.65835 21.4413 6.88668C21.2063 7.10168 20.9046 7.21834 20.5879 7.21834V7.21668ZM20.5862 5.27C20.4162 5.27 20.2546 5.33335 20.1279 5.44835C19.9929 5.57168 19.9146 5.73834 19.9079 5.92001C19.8996 6.10167 19.963 6.27502 20.0846 6.41002C20.208 6.54502 20.3746 6.62334 20.5563 6.63001C20.7363 6.63834 20.9112 6.57502 21.0462 6.45335C21.1812 6.33002 21.2596 6.16334 21.2663 5.98167C21.2829 5.60667 20.9913 5.28834 20.6163 5.27167C20.6063 5.27167 20.5946 5.27167 20.5846 5.27167L20.5862 5.27Z" fill="#595959"/>
<path d="M11.5796 16.5167C8.12797 16.5167 5.32129 13.7083 5.32129 10.2583C5.32129 6.80834 8.12797 4 11.5796 4C15.0313 4 17.8379 6.80667 17.8379 10.2583C17.8379 13.71 15.0313 16.5167 11.5796 16.5167ZM11.5796 4.58667C8.4513 4.58667 5.90796 7.13167 5.90796 10.2583C5.90796 13.385 8.45297 15.93 11.5796 15.93C14.7063 15.93 17.2513 13.385 17.2513 10.2583C17.2513 7.13167 14.7063 4.58667 11.5796 4.58667Z" fill="#595959"/>
<path d="M20.1213 19.995C19.8179 19.995 19.5163 19.88 19.2863 19.65L14.9079 15.2717C14.7929 15.1567 14.7929 14.9717 14.9079 14.8567C15.0229 14.7417 15.2079 14.7417 15.3229 14.8567L19.7013 19.235C19.9346 19.4683 20.3163 19.4683 20.5496 19.235C20.7913 18.9933 20.7913 18.6133 20.5579 18.38L16.3713 14.1933C16.2563 14.0783 16.2563 13.8933 16.3713 13.7783C16.4863 13.6633 16.6713 13.6633 16.7863 13.7783L20.9729 17.965C21.4346 18.4267 21.4346 19.18 20.9729 19.6417C20.7363 19.8783 20.4296 19.995 20.1246 19.995H20.1213Z" fill="#595959"/>
<path d="M15.2796 11.33C15.2013 11.33 15.1246 11.2983 15.0663 11.2383C14.9546 11.12 14.9613 10.935 15.078 10.8233L19.658 6.51167C19.7763 6.40001 19.9613 6.40667 20.073 6.525C20.1846 6.64333 20.178 6.82833 20.0613 6.94L15.4813 11.2517C15.4246 11.305 15.353 11.3317 15.2813 11.3317L15.2796 11.33Z" stroke="#595959" stroke-width="0.4"/>
<path d="M13.6096 11.5917C13.558 11.5917 13.5047 11.5783 13.458 11.5483L9.49799 9.13167C9.35965 9.04667 9.31631 8.86667 9.40131 8.72833C9.48631 8.59 9.66629 8.54668 9.80463 8.63168L13.7646 11.0483C13.903 11.1333 13.9463 11.3133 13.8613 11.4517C13.8063 11.5417 13.7096 11.5917 13.6113 11.5917H13.6096Z" stroke="#595959" stroke-width="0.4"/>
<path d="M4.29295 13.18C4.21962 13.18 4.14625 13.1517 4.08958 13.0967C3.97292 12.9833 3.97128 12.7983 4.08295 12.6817L7.87791 8.77332C7.99124 8.65666 8.17628 8.655 8.29295 8.76667C8.40962 8.88 8.41125 9.065 8.29958 9.18167L4.50458 13.09C4.44791 13.1483 4.37125 13.1783 4.29458 13.1783L4.29295 13.18Z" stroke="#595959" stroke-width="0.4"/>
<path d="M3.6013 14.8367C3.5813 14.8367 3.56299 14.8367 3.54299 14.8367C2.84466 14.805 2.30299 14.2117 2.33466 13.515C2.34966 13.1767 2.49632 12.865 2.74465 12.6367C2.99465 12.4083 3.31798 12.2917 3.65631 12.3067C4.35464 12.3383 4.89631 12.9317 4.86464 13.6283C4.84964 13.9667 4.70298 14.2783 4.45465 14.5067C4.21965 14.7217 3.91797 14.8383 3.6013 14.8383V14.8367ZM3.59963 12.89C3.42963 12.89 3.26796 12.9533 3.1413 13.0683C3.0063 13.1917 2.92795 13.3583 2.92129 13.54C2.90462 13.915 3.19631 14.2333 3.57131 14.25C3.75298 14.2583 3.9263 14.195 4.0613 14.0733C4.1963 13.95 4.27464 13.7834 4.28131 13.6017C4.29798 13.2267 4.00629 12.9083 3.63129 12.8917C3.62129 12.8917 3.60963 12.8917 3.59963 12.8917V12.89Z" stroke="#595959" stroke-width="0.4"/>
<path d="M8.77797 9.55835C8.75797 9.55835 8.73962 9.55835 8.71962 9.55835C8.02129 9.52668 7.47962 8.93334 7.51129 8.23668C7.52629 7.89834 7.67295 7.58667 7.92128 7.35834C8.17128 7.13001 8.49632 7.01334 8.83299 7.02834C9.17132 7.04334 9.48295 7.19 9.71128 7.43834C9.93962 7.68834 10.0563 8.01169 10.0413 8.35002C10.0263 8.68835 9.87962 9 9.63129 9.22833C9.39629 9.44333 9.09464 9.56002 8.77797 9.56002V9.55835ZM8.77631 7.61168C8.60631 7.61168 8.44464 7.675 8.31797 7.79C8.18297 7.91333 8.10463 8.08001 8.09796 8.26168C8.08129 8.63668 8.37299 8.95501 8.74799 8.97168C8.92965 8.98001 9.10298 8.91667 9.23798 8.795C9.37298 8.67167 9.45132 8.50501 9.45799 8.32335C9.46632 8.14168 9.40298 7.96834 9.28131 7.83334C9.15798 7.7 8.9913 7.62001 8.80963 7.61334C8.79963 7.61334 8.78797 7.61334 8.77797 7.61334L8.77631 7.61168Z" stroke="#595959" stroke-width="0.4"/>
<path d="M14.5613 13.0783C14.5413 13.0783 14.5229 13.0783 14.5029 13.0783C13.8046 13.0467 13.2629 12.4533 13.2946 11.7567C13.3096 11.4183 13.4563 11.1067 13.7047 10.8783C13.9547 10.65 14.278 10.5333 14.6163 10.5483C15.3146 10.58 15.8563 11.1733 15.8246 11.87C15.8096 12.2083 15.663 12.52 15.4147 12.7483C15.1797 12.9633 14.878 13.08 14.5613 13.08V13.0783ZM14.5596 11.1317C14.3896 11.1317 14.228 11.195 14.1013 11.31C13.9663 11.4334 13.888 11.6 13.8813 11.7817C13.8646 12.1567 14.1563 12.475 14.5313 12.4917C14.7113 12.5 14.8863 12.4367 15.0213 12.315C15.1563 12.1917 15.2346 12.025 15.2413 11.8433C15.258 11.4683 14.9663 11.15 14.5913 11.1333C14.5813 11.1333 14.5696 11.1333 14.5596 11.1333V11.1317Z" stroke="#595959" stroke-width="0.4"/>
<path d="M20.5879 7.21668C20.5679 7.21668 20.5496 7.21668 20.5296 7.21668C20.1913 7.20168 19.8796 7.05502 19.6513 6.80668C19.4229 6.55668 19.3063 6.23333 19.3213 5.895C19.3363 5.55667 19.4829 5.24502 19.7313 5.01669C19.9813 4.78835 20.3063 4.67167 20.6429 4.68667C21.3413 4.71834 21.8829 5.31168 21.8513 6.00834C21.8363 6.34668 21.6896 6.65835 21.4413 6.88668C21.2063 7.10168 20.9046 7.21834 20.5879 7.21834V7.21668ZM20.5862 5.27C20.4162 5.27 20.2546 5.33335 20.1279 5.44835C19.9929 5.57168 19.9146 5.73834 19.9079 5.92001C19.8996 6.10167 19.963 6.27502 20.0846 6.41002C20.208 6.54502 20.3746 6.62334 20.5563 6.63001C20.7363 6.63834 20.9112 6.57502 21.0462 6.45335C21.1812 6.33002 21.2596 6.16334 21.2663 5.98167C21.2829 5.60667 20.9913 5.28834 20.6163 5.27167C20.6063 5.27167 20.5946 5.27167 20.5846 5.27167L20.5862 5.27Z" stroke="#595959" stroke-width="0.4"/>
<path d="M11.5796 16.5167C8.12797 16.5167 5.32129 13.7083 5.32129 10.2583C5.32129 6.80834 8.12797 4 11.5796 4C15.0313 4 17.8379 6.80667 17.8379 10.2583C17.8379 13.71 15.0313 16.5167 11.5796 16.5167ZM11.5796 4.58667C8.4513 4.58667 5.90796 7.13167 5.90796 10.2583C5.90796 13.385 8.45297 15.93 11.5796 15.93C14.7063 15.93 17.2513 13.385 17.2513 10.2583C17.2513 7.13167 14.7063 4.58667 11.5796 4.58667Z" stroke="#595959" stroke-width="0.4"/>
<path d="M20.1213 19.995C19.8179 19.995 19.5163 19.88 19.2863 19.65L14.9079 15.2717C14.7929 15.1567 14.7929 14.9717 14.9079 14.8567C15.0229 14.7417 15.2079 14.7417 15.3229 14.8567L19.7013 19.235C19.9346 19.4683 20.3163 19.4683 20.5496 19.235C20.7913 18.9933 20.7913 18.6133 20.5579 18.38L16.3713 14.1933C16.2563 14.0783 16.2563 13.8933 16.3713 13.7783C16.4863 13.6633 16.6713 13.6633 16.7863 13.7783L20.9729 17.965C21.4346 18.4267 21.4346 19.18 20.9729 19.6417C20.7363 19.8783 20.4296 19.995 20.1246 19.995H20.1213Z" stroke="#595959" stroke-width="0.4"/>
</g>
</g>
</g>
</svg>
