<svg width="24" height="24" viewBox="0 0 24 24" fill="none" xmlns="http://www.w3.org/2000/svg">
<g id="Component 1">
<g id="Group">
<path id="Vector" d="M15.0893 7.47274H19.3361V8.74677H20.1855V10.4455H19.3361V12.9935" stroke="#595959" stroke-width="0.8" stroke-miterlimit="10"/>
<path id="Vector_2" d="M18.4868 4.5V7.47274" stroke="#595959" stroke-width="0.8" stroke-miterlimit="10"/>
<path id="Vector_3" d="M16.788 6.19871V7.47274" stroke="#595959" stroke-width="0.8" stroke-miterlimit="10"/>
<path id="Vector_4" d="M12.1166 9.59613H7.86982V12.1442" stroke="#595959" stroke-width="0.8" stroke-miterlimit="10"/>
<path id="Vector_5" d="M16.3634 12.9935V9.59613H12.1166V12.9935" stroke="#595959" stroke-width="0.8" stroke-miterlimit="10"/>
<path id="Vector_6" d="M7.86982 9.59613H3.62305V12.1442" stroke="#595959" stroke-width="0.8" stroke-miterlimit="10"/>
<path id="Vector_7" d="M14.24 9.59613V6.62339H9.99321" stroke="#595959" stroke-width="0.8" stroke-miterlimit="10"/>
<path id="Vector_8" d="M9.99321 9.59613V6.62339H5.74644V9.59613" stroke="#595959" stroke-width="0.8" stroke-miterlimit="10"/>
<path id="Vector_9" d="M4.7357 17.1469C4.7357 14.7092 1.49966 14.6923 1.49966 12.1442H9.0929L11.0846 12.9936H20.1855V15.5076C20.1855 16.1319 20.1515 16.5311 19.9519 16.8369" stroke="#595959" stroke-width="0.8" stroke-miterlimit="10"/>
<path id="Vector_10" d="M3.89469 17.7753L5.29612 16.6754C5.61038 16.4291 6.02231 16.4588 6.31109 16.7476L6.83345 17.2742C7.12648 17.5715 7.54691 17.5927 7.86541 17.3336L8.65532 16.6839C8.96534 16.4291 9.37303 16.4461 9.66605 16.7264L10.2649 17.2954C10.5664 17.58 10.9825 17.5884 11.2926 17.3209L12.0103 16.7009C12.3118 16.4376 12.7195 16.4418 13.021 16.7094L13.692 17.3124C13.9978 17.5842 14.4182 17.5842 14.7197 17.3039L15.3652 16.7136C15.6625 16.4418 16.0702 16.4333 16.376 16.6924L17.1191 17.3251C17.4292 17.5884 17.8496 17.5757 18.1469 17.2869L18.7159 16.7348C19.009 16.4503 19.4166 16.4291 19.7267 16.6796L21.0814 17.7711" stroke="#595959" stroke-width="0.8" stroke-miterlimit="10"/>
<path id="Vector_11" d="M1.49966 19.8183L1.86488 19.5295C2.17914 19.2832 2.59109 19.3129 2.87987 19.6017L3.40222 20.1283C3.69525 20.4256 4.11568 20.4468 4.43419 20.1878L5.22408 19.538C5.53409 19.2832 5.94179 19.3002 6.23481 19.5805L6.83361 20.1496C7.13513 20.4341 7.55132 20.4426 7.86134 20.175L8.57904 19.555C8.88056 19.2917 9.28824 19.296 9.58976 19.5635L10.2608 20.1665C10.5665 20.4383 10.987 20.4383 11.2885 20.158L11.934 19.5677C12.2313 19.2959 12.639 19.2875 12.9447 19.5465L13.6879 20.1793C13.9979 20.4426 14.4183 20.4298 14.7156 20.1411L15.2847 19.589C15.5777 19.3044 15.9854 19.2832 16.2954 19.5338L17.6501 20.6252" stroke="#595959" stroke-width="0.8" stroke-miterlimit="10"/>
<path id="Vector_12" d="M7.86982 13.8429H8.71917" stroke="#595959" stroke-width="0.8" stroke-miterlimit="10"/>
</g>
</g>
</svg>
