<svg width="32" height="32" viewBox="0 0 32 32" fill="none" xmlns="http://www.w3.org/2000/svg">
<circle cx="16" cy="16" r="16" fill="#2F54EB"/>
<g clip-path="url(#clip0_315_21719)">
<path d="M10.2906 17.8296L11.4008 17.1887C11.4609 17.154 11.5315 17.1419 11.5997 17.1547L13.7842 17.5635C13.9637 17.5971 14.1294 17.4589 14.1286 17.2763L14.1201 15.3623C14.1199 15.3103 14.1336 15.2592 14.1598 15.2143L15.2622 13.327C15.3196 13.2287 15.3144 13.1061 15.249 13.013L13.3929 10.371M19.782 11.5541C16.582 13.0906 18.3274 15.127 18.9093 15.4179C20.0014 15.9639 21.5202 15.9997 21.5202 15.9997C21.5249 15.9033 21.5274 15.8064 21.5274 15.7088C21.5274 12.4955 18.9225 9.89062 15.7092 9.89062C12.4959 9.89062 9.89099 12.4955 9.89099 15.7088C9.89099 18.9221 12.4959 21.527 15.7092 21.527C15.8067 21.527 15.9037 21.5246 16.0001 21.5198M18.4773 21.492L16.6348 16.6345L21.4923 18.477L19.3383 19.338L18.4773 21.492Z" stroke="#F0F5FF" stroke-width="1.4" stroke-linecap="round" stroke-linejoin="round"/>
</g>
<defs>
<clipPath id="clip0_315_21719">
<rect width="13.9636" height="13.9636" fill="white" transform="translate(8.72729 8.72705)"/>
</clipPath>
</defs>
</svg>
