<svg width="22" height="22" viewBox="0 0 22 22" fill="none" xmlns="http://www.w3.org/2000/svg">
<g id="User">
<rect width="20.5714" height="20.5714" transform="translate(0.714844 0.857422)" fill="white" style="mix-blend-mode:multiply"/>
<g id="Vector">
<path d="M11.0005 3.42878C11.6363 3.42878 12.2577 3.6173 12.7863 3.97049C13.3149 4.32368 13.7269 4.82568 13.9701 5.41301C14.2134 6.00035 14.2771 6.64663 14.1531 7.27014C14.029 7.89365 13.7229 8.46638 13.2734 8.91591C12.8238 9.36544 12.2511 9.67157 11.6276 9.79559C11.0041 9.91961 10.3578 9.85596 9.77048 9.61268C9.18314 9.3694 8.68114 8.95741 8.32795 8.42883C7.97476 7.90024 7.78625 7.27879 7.78625 6.64307C7.78625 5.79058 8.12489 4.97302 8.72769 4.37022C9.33048 3.76743 10.1481 3.42878 11.0005 3.42878ZM11.0005 2.14307C10.1105 2.14307 9.24049 2.40699 8.50047 2.90145C7.76045 3.39592 7.18367 4.09872 6.84307 4.92099C6.50248 5.74326 6.41336 6.64806 6.587 7.52097C6.76063 8.39389 7.18922 9.19571 7.81855 9.82505C8.44789 10.4544 9.24971 10.883 10.1226 11.0566C10.9955 11.2302 11.9003 11.1411 12.7226 10.8005C13.5449 10.4599 14.2477 9.88315 14.7421 9.14313C15.2366 8.40311 15.5005 7.53308 15.5005 6.64307C15.5005 5.44959 15.0264 4.305 14.1825 3.46109C13.3386 2.61717 12.194 2.14307 11.0005 2.14307Z" fill="#597EF7"/>
<path d="M17.4291 20.1431H16.1434V16.9288C16.1434 16.5067 16.0603 16.0887 15.8987 15.6987C15.7372 15.3088 15.5004 14.9544 15.2019 14.6559C14.9035 14.3575 14.5491 14.1207 14.1592 13.9592C13.7692 13.7976 13.3512 13.7145 12.9291 13.7145H9.07196C8.21948 13.7145 7.40191 14.0531 6.79912 14.6559C6.19632 15.2587 5.85767 16.0763 5.85767 16.9288V20.1431H4.57196V16.9288C4.57196 15.7353 5.04607 14.5907 5.88998 13.7468C6.73389 12.9029 7.87849 12.4288 9.07196 12.4288H12.9291C14.1226 12.4288 15.2672 12.9029 16.1111 13.7468C16.955 14.5907 17.4291 15.7353 17.4291 16.9288V20.1431Z" fill="#597EF7"/>
</g>
</g>
</svg>
